<svg xmlns="http://www.w3.org/2000/svg" viewBox="0 0 500 500"><style>.st0{fill:#FFD7D7;}.st1{fill:#FF9E9E;}.st2{fill:#4A4A4A;}.st3{fill:#FFFFFF;}</style><circle class="st0" cx="250" cy="250" r="200"/><path class="st1" d="M250 50c110.5 0 200 89.5 200 200s-89.5 200-200 200-200-89.5-200-200S139.5 50 250 50zm0 360c88.4 0 160-71.6 160-160s-71.6-160-160-160-160 71.6-160 160 71.6 160 160 160z"/><circle class="st2" cx="175" cy="200" r="30"/><circle class="st2" cx="325" cy="200" r="30"/><circle class="st3" cx="185" cy="190" r="10"/><circle class="st3" cx="335" cy="190" r="10"/><path class="st2" d="M320 300c0-38.7-31.3-70-70-70s-70 31.3-70 70h140z"/></svg>
